<svg xmlns="http://www.w3.org/2000/svg" xmlns:xlink="http://www.w3.org/1999/xlink" contentstyletype="text/css" height="888px" preserveAspectRatio="none" style="width:841px;height:888px;background:#FFFFFF;" version="1.1" viewBox="0 0 841 888" width="841px" zoomAndPan="magnify"><defs></defs><g><!--cluster FUT Champions Ultimate Team--><g id="cluster_FUT Champions Ultimate Team"><path d="M148.18,6 L392.2591,6 A3.75,3.75 0 0 1 394.7591,8.5 L401.7591,28.2969 L832.09,28.2969 A2.5,2.5 0 0 1 834.59,30.7969 L834.59,878.5 A2.5,2.5 0 0 1 832.09,881 L148.18,881 A2.5,2.5 0 0 1 145.68,878.5 L145.68,8.5 A2.5,2.5 0 0 1 148.18,6 " fill="none" style="stroke:#000000;stroke-width:1.5;"></path><line style="stroke:#000000;stroke-width:1.5;" x1="145.68" x2="401.7591" y1="28.2969" y2="28.2969"></line><text fill="#000000" font-family="sans-serif" font-size="14" font-weight="bold" lengthAdjust="spacing" textLength="243.0791" x="149.68" y="20.9951">FUT Champions Ultimate Team</text></g><g id="elem_UC1"><ellipse cx="266.8723" cy="351.0005" fill="#F1F1F1" rx="88.1523" ry="20.0305" style="stroke:#181818;stroke-width:0.5;"></ellipse><text fill="#000000" font-family="sans-serif" font-size="14" lengthAdjust="spacing" textLength="137.5459" x="198.0994" y="353.8471">Entity Management</text></g><g id="elem_UC2"><ellipse cx="266.8716" cy="166.9983" fill="#F1F1F1" rx="105.1916" ry="23.4383" style="stroke:#181818;stroke-width:0.5;"></ellipse><text fill="#000000" font-family="sans-serif" font-size="14" lengthAdjust="spacing" textLength="175.4375" x="179.1529" y="169.845">Dashboard and Statistics</text></g><g id="elem_UC3"><ellipse cx="266.8735" cy="490.0027" fill="#F1F1F1" rx="71.0135" ry="16.6027" style="stroke:#181818;stroke-width:0.5;"></ellipse><text fill="#000000" font-family="sans-serif" font-size="14" lengthAdjust="spacing" textLength="95.5596" x="216.0937" y="493.7503">Data Analysis</text></g><g id="elem_UC4"><ellipse cx="266.8667" cy="773.9953" fill="#F1F1F1" rx="87.5767" ry="19.9153" style="stroke:#181818;stroke-width:0.5;"></ellipse><text fill="#000000" font-family="sans-serif" font-size="14" lengthAdjust="spacing" textLength="136.2334" x="198.75" y="776.842">Internationalization</text></g><g id="elem_UC5"><ellipse cx="266.8738" cy="700.9988" fill="#F1F1F1" rx="78.3438" ry="18.0688" style="stroke:#181818;stroke-width:0.5;"></ellipse><text fill="#000000" font-family="sans-serif" font-size="14" lengthAdjust="spacing" textLength="114.4678" x="207.3271" y="704.5633">AJAX Integration</text></g><g id="elem_UC1_1"><ellipse cx="524.6546" cy="421.0049" fill="#F1F1F1" rx="76.9246" ry="17.7849" style="stroke:#181818;stroke-width:0.5;"></ellipse><text fill="#000000" font-family="sans-serif" font-size="14" lengthAdjust="spacing" textLength="110.9199" x="466.2923" y="424.7273">Manage Players</text></g><g id="elem_UC1_2"><ellipse cx="524.6516" cy="350.9963" fill="#F1F1F1" rx="75.2816" ry="17.4563" style="stroke:#181818;stroke-width:0.5;"></ellipse><text fill="#000000" font-family="sans-serif" font-size="14" lengthAdjust="spacing" textLength="106.7363" x="468.2834" y="354.7439">Manage Teams</text></g><g id="elem_UC1_3"><ellipse cx="524.6474" cy="277.9975" fill="#F1F1F1" rx="92.5874" ry="20.9175" style="stroke:#181818;stroke-width:0.5;"></ellipse><text fill="#000000" font-family="sans-serif" font-size="14" lengthAdjust="spacing" textLength="147.5742" x="450.8603" y="280.8442">Manage Nationalities</text></g><g id="elem_UC1_1_1"><ellipse cx="747.9171" cy="521.9994" fill="#F1F1F1" rx="63.8471" ry="15.1694" style="stroke:#181818;stroke-width:0.5;"></ellipse><text fill="#000000" font-family="sans-serif" font-size="14" lengthAdjust="spacing" textLength="75.3662" x="707.234" y="525.747">Add Player</text></g><g id="elem_UC1_1_2"><ellipse cx="747.9248" cy="455.005" fill="#F1F1F1" rx="70.6748" ry="16.535" style="stroke:#181818;stroke-width:0.5;"></ellipse><text fill="#000000" font-family="sans-serif" font-size="14" lengthAdjust="spacing" textLength="94.6504" x="697.5996" y="458.7525">Modify Player</text></g><g id="elem_UC1_1_3"><ellipse cx="747.9188" cy="386.9978" fill="#F1F1F1" rx="70.4388" ry="16.4878" style="stroke:#181818;stroke-width:0.5;"></ellipse><text fill="#000000" font-family="sans-serif" font-size="14" lengthAdjust="spacing" textLength="94.0146" x="697.9114" y="390.7453">Delete Player</text></g><g id="elem_UC1_1_4"><ellipse cx="747.915" cy="319.999" fill="#F1F1F1" rx="65.345" ry="15.469" style="stroke:#181818;stroke-width:0.5;"></ellipse><text fill="#000000" font-family="sans-serif" font-size="14" lengthAdjust="spacing" textLength="79.7822" x="705.0239" y="323.7466">List Players</text></g><g id="elem_UC2_1"><ellipse cx="524.6542" cy="202.9968" fill="#F1F1F1" rx="81.3342" ry="18.6668" style="stroke:#181818;stroke-width:0.5;"></ellipse><text fill="#000000" font-family="sans-serif" font-size="14" lengthAdjust="spacing" textLength="121.7344" x="462.6124" y="206.2291">View Player Stats</text></g><g id="elem_UC2_2"><ellipse cx="524.6493" cy="130.9999" fill="#F1F1F1" rx="79.5993" ry="18.3199" style="stroke:#181818;stroke-width:0.5;"></ellipse><text fill="#000000" font-family="sans-serif" font-size="14" lengthAdjust="spacing" textLength="117.5508" x="464.055" y="134.4249">View Team Stats</text></g><g id="elem_UC2_3"><ellipse cx="524.648" cy="59.0036" fill="#F1F1F1" rx="80.468" ry="18.4936" style="stroke:#181818;stroke-width:0.5;"></ellipse><text fill="#000000" font-family="sans-serif" font-size="14" lengthAdjust="spacing" textLength="119.6563" x="463.3289" y="62.3321">View Distribution</text></g><g id="elem_UC3_1"><ellipse cx="524.6493" cy="557.9959" fill="#F1F1F1" rx="70.4793" ry="16.4959" style="stroke:#181818;stroke-width:0.5;"></ellipse><text fill="#000000" font-family="sans-serif" font-size="14" lengthAdjust="spacing" textLength="94.124" x="474.5873" y="561.7434">Analyze JSON</text></g><g id="elem_UC3_2"><ellipse cx="524.6494" cy="489.9999" fill="#F1F1F1" rx="68.0994" ry="16.0199" style="stroke:#181818;stroke-width:0.5;"></ellipse><text fill="#000000" font-family="sans-serif" font-size="14" lengthAdjust="spacing" textLength="87.6094" x="477.8447" y="493.7474">Optimize DB</text></g><g id="elem_UC4_1"><ellipse cx="524.6463" cy="845.9953" fill="#F1F1F1" rx="83.6263" ry="19.1253" style="stroke:#181818;stroke-width:0.5;"></ellipse><text fill="#000000" font-family="sans-serif" font-size="14" lengthAdjust="spacing" textLength="127.1416" x="460.6924" y="848.9728">Change Language</text></g><g id="elem_UC4_2"><ellipse cx="524.652" cy="773.0004" fill="#F1F1F1" rx="82.252" ry="18.8504" style="stroke:#181818;stroke-width:0.5;"></ellipse><text fill="#000000" font-family="sans-serif" font-size="14" lengthAdjust="spacing" textLength="123.915" x="461.8445" y="776.1306">Load Translations</text></g><g id="elem_UC5_1"><ellipse cx="524.6491" cy="702.0038" fill="#F1F1F1" rx="73.3191" ry="17.0638" style="stroke:#181818;stroke-width:0.5;"></ellipse><text fill="#000000" font-family="sans-serif" font-size="14" lengthAdjust="spacing" textLength="101.6572" x="470.8205" y="705.7514">Async Loading</text></g><g id="elem_UC5_2"><ellipse cx="524.648" cy="629.9996" fill="#F1F1F1" rx="88.648" ry="20.1296" style="stroke:#181818;stroke-width:0.5;"></ellipse><text fill="#000000" font-family="sans-serif" font-size="14" lengthAdjust="spacing" textLength="138.6738" x="455.3111" y="632.8463">Modal Management</text></g><!--entity Admin--><g id="elem_Admin"><ellipse cx="53.8413" cy="321.35" fill="#F1F1F1" rx="8" ry="8" style="stroke:#181818;stroke-width:0.5;"></ellipse><path d="M53.8413,329.35 L53.8413,356.35 M40.8413,337.35 L66.8413,337.35 M53.8413,356.35 L40.8413,371.35 M53.8413,356.35 L66.8413,371.35 " fill="none" style="stroke:#181818;stroke-width:0.5;"></path><text fill="#000000" font-family="sans-serif" font-size="14" lengthAdjust="spacing" textLength="95.6826" x="6" y="385.8451">Administrator</text></g><!--entity User--><g id="elem_User"><ellipse cx="53.8451" cy="707.35" fill="#F1F1F1" rx="8" ry="8" style="stroke:#181818;stroke-width:0.5;"></ellipse><path d="M53.8451,715.35 L53.8451,742.35 M40.8451,723.35 L66.8451,723.35 M53.8451,742.35 L40.8451,757.35 M53.8451,742.35 L66.8451,757.35 " fill="none" style="stroke:#181818;stroke-width:0.5;"></path><text fill="#000000" font-family="sans-serif" font-size="14" lengthAdjust="spacing" textLength="31.9102" x="37.89" y="771.8451">User</text></g><!--reverse link UC1 to UC1_1--><g id="link_UC1_UC1_1"><path d="M342.0019,371.2903 C386.5919,383.4903 430.75,395.57 473.53,407.28 " fill="none" id="UC1-backto-UC1_1" style="stroke:#181818;stroke-width:1.0;"></path><polygon fill="none" points="324.64,366.54,340.4185,377.0776,343.5853,365.503,324.64,366.54" style="stroke:#181818;stroke-width:1.0;"></polygon></g><!--reverse link UC1 to UC1_2--><g id="link_UC1_UC1_2"><path d="M373.18,351 C403.72,351 419.7,351 449.1,351 " fill="none" id="UC1-backto-UC1_2" style="stroke:#181818;stroke-width:1.0;"></path><polygon fill="none" points="355.18,351,373.18,357,373.18,345,355.18,351" style="stroke:#181818;stroke-width:1.0;"></polygon></g><!--reverse link UC1 to UC1_3--><g id="link_UC1_UC1_3"><path d="M340.3688,330.3099 C382.5188,318.2799 423.13,306.69 465.9,294.48 " fill="none" id="UC1-backto-UC1_3" style="stroke:#181818;stroke-width:1.0;"></path><polygon fill="none" points="323.06,335.25,342.0155,336.0795,338.7221,324.5403,323.06,335.25" style="stroke:#181818;stroke-width:1.0;"></polygon></g><!--reverse link UC1_1 to UC1_1_1--><g id="link_UC1_1_UC1_1_1"><path d="M585.4359,442.2981 C600.9659,448.0881 601.64,448.77 617.24,456 C644.85,468.8 650.14,475.15 677.24,489 C690.23,495.64 704.79,502.61 717.23,508.42 " fill="none" id="UC1_1-backto-UC1_1_1" style="stroke:#181818;stroke-width:1.0;"></path><polygon fill="none" points="568.57,436.01,583.3399,447.9201,587.532,436.6761,568.57,436.01" style="stroke:#181818;stroke-width:1.0;"></polygon></g><!--reverse link UC1_1 to UC1_1_2--><g id="link_UC1_1_UC1_1_2"><path d="M607.4409,433.5657 C638.4609,438.3357 657.67,441.29 687.98,445.94 " fill="none" id="UC1_1-backto-UC1_1_2" style="stroke:#181818;stroke-width:1.0;"></path><polygon fill="none" points="589.65,430.83,606.529,439.496,608.3528,427.6354,589.65,430.83" style="stroke:#181818;stroke-width:1.0;"></polygon></g><!--reverse link UC1_1 to UC1_1_3--><g id="link_UC1_1_UC1_1_3"><path d="M607.4409,408.4343 C638.4609,403.6643 657.67,400.71 687.98,396.06 " fill="none" id="UC1_1-backto-UC1_1_3" style="stroke:#181818;stroke-width:1.0;"></path><polygon fill="none" points="589.65,411.17,608.3528,414.3646,606.529,402.504,589.65,411.17" style="stroke:#181818;stroke-width:1.0;"></polygon></g><!--reverse link UC1_1 to UC1_1_4--><g id="link_UC1_1_UC1_1_4"><path d="M585.4359,399.7019 C600.9659,393.9119 601.64,393.23 617.24,386 C644.85,373.2 650.14,366.85 677.24,353 C689.99,346.48 704.26,339.65 716.54,333.9 " fill="none" id="UC1_1-backto-UC1_1_4" style="stroke:#181818;stroke-width:1.0;"></path><polygon fill="none" points="568.57,405.99,587.532,405.3239,583.3399,394.0799,568.57,405.99" style="stroke:#181818;stroke-width:1.0;"></polygon></g><!--reverse link UC2 to UC2_1--><g id="link_UC2_UC2_1"><path d="M374.4442,181.9997 C406.4742,186.5097 424.31,189.02 454.42,193.26 " fill="none" id="UC2-backto-UC2_1" style="stroke:#181818;stroke-width:1.0;"></path><polygon fill="none" points="356.62,179.49,373.6076,187.9411,375.2808,176.0584,356.62,179.49" style="stroke:#181818;stroke-width:1.0;"></polygon></g><!--reverse link UC2 to UC2_2--><g id="link_UC2_UC2_2"><path d="M374.4442,152.0004 C407.0442,147.4104 425.59,144.8 456.05,140.52 " fill="none" id="UC2-backto-UC2_2" style="stroke:#181818;stroke-width:1.0;"></path><polygon fill="none" points="356.62,154.51,375.2807,157.9418,373.6077,146.059,356.62,154.51" style="stroke:#181818;stroke-width:1.0;"></polygon></g><!--reverse link UC2 to UC2_3--><g id="link_UC2_UC2_3"><path d="M331.5261,138.3815 C364.2261,123.7815 392.4,111.48 432.07,95 C448.32,88.25 466.32,81.1 482.03,74.97 " fill="none" id="UC2-backto-UC2_3" style="stroke:#181818;stroke-width:1.0;"></path><polygon fill="none" points="315.09,145.72,333.9723,143.8603,329.08,132.9028,315.09,145.72" style="stroke:#181818;stroke-width:1.0;"></polygon></g><!--reverse link UC3 to UC3_1--><g id="link_UC3_UC3_1"><path d="M332.4857,507.1748 C378.5257,519.4148 430.76,533.31 476.72,545.52 " fill="none" id="UC3-backto-UC3_1" style="stroke:#181818;stroke-width:1.0;"></path><polygon fill="none" points="315.09,502.55,330.9442,512.9733,334.0273,501.3762,315.09,502.55" style="stroke:#181818;stroke-width:1.0;"></polygon></g><!--reverse link UC3 to UC3_2--><g id="link_UC3_UC3_2"><path d="M356.11,490 C392.93,490 419.82,490 456.22,490 " fill="none" id="UC3-backto-UC3_2" style="stroke:#181818;stroke-width:1.0;"></path><polygon fill="none" points="338.11,490,356.11,496,356.11,484,338.11,490" style="stroke:#181818;stroke-width:1.0;"></polygon></g><!--reverse link UC4 to UC4_1--><g id="link_UC4_UC4_1"><path d="M340.696,794.4994 C384.336,806.7894 427.41,818.91 470.45,831.02 " fill="none" id="UC4-backto-UC4_1" style="stroke:#181818;stroke-width:1.0;"></path><polygon fill="none" points="323.37,789.62,339.0696,800.2747,342.3225,788.7241,323.37,789.62" style="stroke:#181818;stroke-width:1.0;"></polygon></g><!--reverse link UC4 to UC4_2--><g id="link_UC4_UC4_2"><path d="M372.8299,773.5899 C401.0699,773.4799 414.29,773.43 442.12,773.32 " fill="none" id="UC4-backto-UC4_2" style="stroke:#181818;stroke-width:1.0;"></path><polygon fill="none" points="354.83,773.66,372.8532,779.5898,372.8065,767.5899,354.83,773.66" style="stroke:#181818;stroke-width:1.0;"></polygon></g><!--reverse link UC5 to UC5_1--><g id="link_UC5_UC5_1"><path d="M363.6598,701.3752 C397.1698,701.5152 418.13,701.59 451.04,701.72 " fill="none" id="UC5-backto-UC5_1" style="stroke:#181818;stroke-width:1.0;"></path><polygon fill="none" points="345.66,701.3,363.6348,707.3751,363.6849,695.3753,345.66,701.3" style="stroke:#181818;stroke-width:1.0;"></polygon></g><!--reverse link UC5 to UC5_2--><g id="link_UC5_UC5_2"><path d="M335.7543,682.1558 C378.5543,670.2758 422.53,658.07 466.99,645.73 " fill="none" id="UC5-backto-UC5_2" style="stroke:#181818;stroke-width:1.0;"></path><polygon fill="none" points="318.41,686.97,337.359,687.9372,334.1495,676.3743,318.41,686.97" style="stroke:#181818;stroke-width:1.0;"></polygon></g><!--link Admin to UC1--><g id="link_Admin_UC1"><path d="M101.94,351 C124.53,351 146.35,351 172.61,351 " fill="none" id="Admin-to-UC1" style="stroke:#181818;stroke-width:1.0;"></path><polygon fill="#181818" points="178.61,351,169.61,347,173.61,351,169.61,355,178.61,351" style="stroke:#181818;stroke-width:1.0;"></polygon></g><!--link Admin to UC2--><g id="link_Admin_UC2"><path d="M99.08,312.43 C141.62,275.33 199.9883,224.4539 235.1283,193.8039 " fill="none" id="Admin-to-UC2" style="stroke:#181818;stroke-width:1.0;"></path><polygon fill="#181818" points="239.65,189.86,230.2382,192.7614,235.8819,193.1466,235.4968,198.7903,239.65,189.86" style="stroke:#181818;stroke-width:1.0;"></polygon></g><!--link Admin to UC3--><g id="link_Admin_UC3"><path d="M101.94,382.02 C145.31,410.59 202.8898,448.5088 236.8098,470.8588 " fill="none" id="Admin-to-UC3" style="stroke:#181818;stroke-width:1.0;"></path><polygon fill="#181818" points="241.82,474.16,236.5055,465.868,237.6448,471.409,232.1039,472.5483,241.82,474.16" style="stroke:#181818;stroke-width:1.0;"></polygon></g><!--link User to UC4--><g id="link_User_UC4"><path d="M70.02,739.66 C96.2,744.25 145.4701,752.8942 190.6001,760.8042 " fill="none" id="User-to-UC4" style="stroke:#181818;stroke-width:1.0;"></path><polygon fill="#181818" points="196.51,761.84,188.3357,756.3463,191.5851,760.9768,186.9546,764.2262,196.51,761.84" style="stroke:#181818;stroke-width:1.0;"></polygon></g><!--link User to UC5--><g id="link_User_UC5"><path d="M70.02,734.41 C97.43,729.74 150.7055,720.6492 196.8855,712.7692 " fill="none" id="User-to-UC5" style="stroke:#181818;stroke-width:1.0;"></path><polygon fill="#181818" points="202.8,711.76,193.2554,709.3308,197.8712,712.601,194.6011,717.2169,202.8,711.76" style="stroke:#181818;stroke-width:1.0;"></polygon></g><!--SRC=[XPHDZvim48Rl_8eHbvvoY06fXweIJLgfgtItwcQhlQrcOJOP5Ko47LLis_zU6x3vh9f31AyVpxoU6LpGYmPTGSsdiuQSQyeqLpB0J5SrX6bUicIbQpIl8Q22Ld7B3uewrJu4mGMp7tWY23yz765tnl9YGfd5GdE9ck18M8RmAm3pUmDVaANT23jKf5hngYWpBn1-b9frOn1fufKaTPTbjvrYUrJdvmhh753cSAzH6w-SgPuMSreZf1ABHh53eYdoMMgg9TeIOC6lxKDFnbColKaVmUAdUambGN-wnGbWJngvc1sqMuUl1JPKErFRf-qgPUitC6ALkNNcDTF0HivMb-Y_jj8yxz71qi9KbVDBiyJcLQU2D2snMUKFfdFBCZp5plZGwbN3tvb-kiFPEV0ZC7VTWhQGCqoiO7ix-Vny7VLN3AMSZDC_ocXNNmbkxkzktS3D3TrTpDV11jf_y8XmENZxLgw7Df-NDEq-cF-hQQKRqddqGuKv76kKgcW7GtdGvsWdUTs-QcG6DWJBanlmbJ70Olcb9aE2RzJdFlEbos1w2-z-RpQZMPz8OYdrPMytZFOEkwUoM9UZTJbsmOLJXGyyaiHIyhOYfqL-vqWI3ekT5dji97aiSLhYiP4qjAwzXdULbDsrtLMtlQ9XitdlByon8XQAEuEvmtibdWj9yESl]--></g></svg>