<svg xmlns="http://www.w3.org/2000/svg" xmlns:xlink="http://www.w3.org/1999/xlink" contentstyletype="text/css" height="463px" preserveAspectRatio="none" style="width:1227px;height:463px;background:#FFFFFF;" version="1.1" viewBox="0 0 1227 463" width="1227px" zoomAndPan="magnify"><defs></defs><g><!--class Player--><g id="elem_Player"><rect codeline="1" fill="#F1F1F1" height="210.9688" id="Player" rx="2.5" ry="2.5" style="stroke:#181818;stroke-width:0.5;" width="265.3535" x="168.97" y="7"></rect><ellipse cx="275.614" cy="23" fill="#ADD1B2" rx="11" ry="11" style="stroke:#181818;stroke-width:1.0;"></ellipse><path d="M278.5828,28.6406 Q278.0047,28.9375 277.364,29.0781 Q276.7234,29.2344 276.0203,29.2344 Q273.5203,29.2344 272.1922,27.5938 Q270.8797,25.9375 270.8797,22.8125 Q270.8797,19.6875 272.1922,18.0313 Q273.5203,16.375 276.0203,16.375 Q276.7234,16.375 277.364,16.5313 Q278.0203,16.6875 278.5828,16.9844 L278.5828,19.7031 Q277.9578,19.125 277.364,18.8594 Q276.7703,18.5781 276.1453,18.5781 Q274.8015,18.5781 274.114,19.6563 Q273.4265,20.7188 273.4265,22.8125 Q273.4265,24.9063 274.114,25.9844 Q274.8015,27.0469 276.1453,27.0469 Q276.7703,27.0469 277.364,26.7813 Q277.9578,26.5 278.5828,25.9219 L278.5828,28.6406 Z " fill="#000000"></path><text fill="#000000" font-family="sans-serif" font-size="14" lengthAdjust="spacing" textLength="43.5654" x="296.114" y="27.8467">Player</text><line style="stroke:#181818;stroke-width:0.5;" x1="169.97" x2="433.3235" y1="39" y2="39"></line><rect fill="none" height="6" style="stroke:#C82930;stroke-width:1.0;" width="6" x="176.97" y="49.6484"></rect><text fill="#000000" font-family="sans-serif" font-size="14" lengthAdjust="spacing" textLength="40.1953" x="188.97" y="55.9951">id: int</text><rect fill="none" height="6" style="stroke:#C82930;stroke-width:1.0;" width="6" x="176.97" y="65.9453"></rect><text fill="#000000" font-family="sans-serif" font-size="14" lengthAdjust="spacing" textLength="89.0586" x="188.97" y="72.292">name: string</text><rect fill="none" height="6" style="stroke:#C82930;stroke-width:1.0;" width="6" x="176.97" y="82.2422"></rect><text fill="#000000" font-family="sans-serif" font-size="14" lengthAdjust="spacing" textLength="53.498" x="188.97" y="88.5889">age: int</text><rect fill="none" height="6" style="stroke:#C82930;stroke-width:1.0;" width="6" x="176.97" y="98.5391"></rect><text fill="#000000" font-family="sans-serif" font-size="14" lengthAdjust="spacing" textLength="104.8086" x="188.97" y="104.8857">position: string</text><rect fill="none" height="6" style="stroke:#C82930;stroke-width:1.0;" width="6" x="176.97" y="114.8359"></rect><text fill="#000000" font-family="sans-serif" font-size="14" lengthAdjust="spacing" textLength="83.5146" x="188.97" y="121.1826">team_id: int</text><rect fill="none" height="6" style="stroke:#C82930;stroke-width:1.0;" width="6" x="176.97" y="131.1328"></rect><text fill="#000000" font-family="sans-serif" font-size="14" lengthAdjust="spacing" textLength="121.5977" x="188.97" y="137.4795">nationality_id: int</text><line style="stroke:#181818;stroke-width:0.5;" x1="169.97" x2="433.3235" y1="144.7813" y2="144.7813"></line><ellipse cx="179.97" cy="158.4297" fill="#84BE84" rx="3" ry="3" style="stroke:#038048;stroke-width:1.0;"></ellipse><text fill="#000000" font-family="sans-serif" font-size="14" lengthAdjust="spacing" textLength="216.3779" x="188.97" y="161.7764">addPlayer(player: Player): void</text><ellipse cx="179.97" cy="174.7266" fill="#84BE84" rx="3" ry="3" style="stroke:#038048;stroke-width:1.0;"></ellipse><text fill="#000000" font-family="sans-serif" font-size="14" lengthAdjust="spacing" textLength="239.3535" x="188.97" y="178.0732">updatePlayer(player: Player): void</text><ellipse cx="179.97" cy="191.0234" fill="#84BE84" rx="3" ry="3" style="stroke:#038048;stroke-width:1.0;"></ellipse><text fill="#000000" font-family="sans-serif" font-size="14" lengthAdjust="spacing" textLength="221.833" x="188.97" y="194.3701">deletePlayer(playerId: int): void</text><ellipse cx="179.97" cy="207.3203" fill="#84BE84" rx="3" ry="3" style="stroke:#038048;stroke-width:1.0;"></ellipse><text fill="#000000" font-family="sans-serif" font-size="14" lengthAdjust="spacing" textLength="183.0117" x="188.97" y="210.667">listPlayers(): List&lt;Player&gt;</text></g><!--class Team--><g id="elem_Team"><rect codeline="14" fill="#F1F1F1" height="178.375" id="Team" rx="2.5" ry="2.5" style="stroke:#181818;stroke-width:0.5;" width="249.2959" x="7" y="277.96"></rect><ellipse cx="107.707" cy="293.96" fill="#ADD1B2" rx="11" ry="11" style="stroke:#181818;stroke-width:1.0;"></ellipse><path d="M110.6758,299.6006 Q110.0977,299.8975 109.457,300.0381 Q108.8164,300.1944 108.1133,300.1944 Q105.6133,300.1944 104.2852,298.5538 Q102.9727,296.8975 102.9727,293.7725 Q102.9727,290.6475 104.2852,288.9913 Q105.6133,287.335 108.1133,287.335 Q108.8164,287.335 109.457,287.4913 Q110.1133,287.6475 110.6758,287.9444 L110.6758,290.6631 Q110.0508,290.085 109.457,289.8194 Q108.8633,289.5381 108.2383,289.5381 Q106.8945,289.5381 106.207,290.6163 Q105.5195,291.6788 105.5195,293.7725 Q105.5195,295.8663 106.207,296.9444 Q106.8945,298.0069 108.2383,298.0069 Q108.8633,298.0069 109.457,297.7413 Q110.0508,297.46 110.6758,296.8819 L110.6758,299.6006 Z " fill="#000000"></path><text fill="#000000" font-family="sans-serif" font-size="14" lengthAdjust="spacing" textLength="39.3818" x="128.207" y="298.8067">Team</text><line style="stroke:#181818;stroke-width:0.5;" x1="8" x2="255.2959" y1="309.96" y2="309.96"></line><rect fill="none" height="6" style="stroke:#C82930;stroke-width:1.0;" width="6" x="15" y="320.6084"></rect><text fill="#000000" font-family="sans-serif" font-size="14" lengthAdjust="spacing" textLength="40.1953" x="27" y="326.9551">id: int</text><rect fill="none" height="6" style="stroke:#C82930;stroke-width:1.0;" width="6" x="15" y="336.9053"></rect><text fill="#000000" font-family="sans-serif" font-size="14" lengthAdjust="spacing" textLength="89.0586" x="27" y="343.252">name: string</text><rect fill="none" height="6" style="stroke:#C82930;stroke-width:1.0;" width="6" x="15" y="353.2022"></rect><text fill="#000000" font-family="sans-serif" font-size="14" lengthAdjust="spacing" textLength="123.2793" x="27" y="359.5489">founded_year: int</text><rect fill="none" height="6" style="stroke:#C82930;stroke-width:1.0;" width="6" x="15" y="369.4991"></rect><text fill="#000000" font-family="sans-serif" font-size="14" lengthAdjust="spacing" textLength="158.9834" x="27" y="375.8457">manager_name: string</text><line style="stroke:#181818;stroke-width:0.5;" x1="8" x2="255.2959" y1="383.1475" y2="383.1475"></line><ellipse cx="18" cy="396.7959" fill="#84BE84" rx="3" ry="3" style="stroke:#038048;stroke-width:1.0;"></ellipse><text fill="#000000" font-family="sans-serif" font-size="14" lengthAdjust="spacing" textLength="200.3203" x="27" y="400.1426">addTeam(team: Team): void</text><ellipse cx="18" cy="413.0928" fill="#84BE84" rx="3" ry="3" style="stroke:#038048;stroke-width:1.0;"></ellipse><text fill="#000000" font-family="sans-serif" font-size="14" lengthAdjust="spacing" textLength="223.2959" x="27" y="416.4395">updateTeam(team: Team): void</text><ellipse cx="18" cy="429.3897" fill="#84BE84" rx="3" ry="3" style="stroke:#038048;stroke-width:1.0;"></ellipse><text fill="#000000" font-family="sans-serif" font-size="14" lengthAdjust="spacing" textLength="209.959" x="27" y="432.7364">deleteTeam(teamId: int): void</text><ellipse cx="18" cy="445.6866" fill="#84BE84" rx="3" ry="3" style="stroke:#038048;stroke-width:1.0;"></ellipse><text fill="#000000" font-family="sans-serif" font-size="14" lengthAdjust="spacing" textLength="174.6445" x="27" y="449.0332">listTeams(): List&lt;Team&gt;</text></g><!--class Nationality--><g id="elem_Nationality"><rect codeline="25" fill="#F1F1F1" height="162.0781" id="Nationality" rx="2.5" ry="2.5" style="stroke:#181818;stroke-width:0.5;" width="360.6191" x="291.34" y="286.11"></rect><ellipse cx="429.3986" cy="302.11" fill="#ADD1B2" rx="11" ry="11" style="stroke:#181818;stroke-width:1.0;"></ellipse><path d="M432.3673,307.7506 Q431.7892,308.0475 431.1486,308.1881 Q430.508,308.3444 429.8048,308.3444 Q427.3048,308.3444 425.9767,306.7037 Q424.6642,305.0475 424.6642,301.9225 Q424.6642,298.7975 425.9767,297.1412 Q427.3048,295.485 429.8048,295.485 Q430.508,295.485 431.1486,295.6412 Q431.8048,295.7975 432.3673,296.0944 L432.3673,298.8131 Q431.7423,298.235 431.1486,297.9694 Q430.5548,297.6881 429.9298,297.6881 Q428.5861,297.6881 427.8986,298.7662 Q427.2111,299.8287 427.2111,301.9225 Q427.2111,304.0162 427.8986,305.0944 Q428.5861,306.1569 429.9298,306.1569 Q430.5548,306.1569 431.1486,305.8912 Q431.7423,305.61 432.3673,305.0319 L432.3673,307.7506 Z " fill="#000000"></path><text fill="#000000" font-family="sans-serif" font-size="14" lengthAdjust="spacing" textLength="76.002" x="449.8986" y="306.9567">Nationality</text><line style="stroke:#181818;stroke-width:0.5;" x1="292.34" x2="650.9591" y1="318.11" y2="318.11"></line><rect fill="none" height="6" style="stroke:#C82930;stroke-width:1.0;" width="6" x="299.34" y="328.7584"></rect><text fill="#000000" font-family="sans-serif" font-size="14" lengthAdjust="spacing" textLength="40.1953" x="311.34" y="335.1051">id: int</text><rect fill="none" height="6" style="stroke:#C82930;stroke-width:1.0;" width="6" x="299.34" y="345.0553"></rect><text fill="#000000" font-family="sans-serif" font-size="14" lengthAdjust="spacing" textLength="89.0586" x="311.34" y="351.402">name: string</text><rect fill="none" height="6" style="stroke:#C82930;stroke-width:1.0;" width="6" x="299.34" y="361.3522"></rect><text fill="#000000" font-family="sans-serif" font-size="14" lengthAdjust="spacing" textLength="93.9395" x="311.34" y="367.6989">region: string</text><line style="stroke:#181818;stroke-width:0.5;" x1="292.34" x2="650.9591" y1="375.0006" y2="375.0006"></line><ellipse cx="302.34" cy="388.6491" fill="#84BE84" rx="3" ry="3" style="stroke:#038048;stroke-width:1.0;"></ellipse><text fill="#000000" font-family="sans-serif" font-size="14" lengthAdjust="spacing" textLength="311.6436" x="311.34" y="391.9957">addNationality(nationality: Nationality): void</text><ellipse cx="302.34" cy="404.9459" fill="#84BE84" rx="3" ry="3" style="stroke:#038048;stroke-width:1.0;"></ellipse><text fill="#000000" font-family="sans-serif" font-size="14" lengthAdjust="spacing" textLength="334.6191" x="311.34" y="408.2926">updateNationality(nationality: Nationality): void</text><ellipse cx="302.34" cy="421.2428" fill="#84BE84" rx="3" ry="3" style="stroke:#038048;stroke-width:1.0;"></ellipse><text fill="#000000" font-family="sans-serif" font-size="14" lengthAdjust="spacing" textLength="284.6621" x="311.34" y="424.5895">deleteNationality(nationalityId: int): void</text><ellipse cx="302.34" cy="437.5397" fill="#84BE84" rx="3" ry="3" style="stroke:#038048;stroke-width:1.0;"></ellipse><text fill="#000000" font-family="sans-serif" font-size="14" lengthAdjust="spacing" textLength="252.1025" x="311.34" y="440.8864">listNationalities(): List&lt;Nationality&gt;</text></g><!--class Statistics--><g id="elem_Statistics"><rect codeline="35" fill="#F1F1F1" height="145.7813" id="Statistics" rx="2.5" ry="2.5" style="stroke:#181818;stroke-width:0.5;" width="229.2324" x="687.03" y="294.26"></rect><ellipse cx="765.3972" cy="310.26" fill="#ADD1B2" rx="11" ry="11" style="stroke:#181818;stroke-width:1.0;"></ellipse><path d="M768.3659,315.9006 Q767.7878,316.1975 767.1472,316.3381 Q766.5066,316.4944 765.8034,316.4944 Q763.3034,316.4944 761.9753,314.8537 Q760.6628,313.1975 760.6628,310.0725 Q760.6628,306.9475 761.9753,305.2912 Q763.3034,303.635 765.8034,303.635 Q766.5066,303.635 767.1472,303.7912 Q767.8034,303.9475 768.3659,304.2444 L768.3659,306.9631 Q767.7409,306.385 767.1472,306.1194 Q766.5534,305.8381 765.9284,305.8381 Q764.5847,305.8381 763.8972,306.9162 Q763.2097,307.9787 763.2097,310.0725 Q763.2097,312.1662 763.8972,313.2444 Q764.5847,314.3069 765.9284,314.3069 Q766.5534,314.3069 767.1472,314.0412 Q767.7409,313.76 768.3659,313.1819 L768.3659,315.9006 Z " fill="#000000"></path><text fill="#000000" font-family="sans-serif" font-size="14" lengthAdjust="spacing" textLength="63.998" x="785.8972" y="315.1067">Statistics</text><line style="stroke:#181818;stroke-width:0.5;" x1="688.03" x2="915.2624" y1="326.26" y2="326.26"></line><rect fill="none" height="6" style="stroke:#C82930;stroke-width:1.0;" width="6" x="695.03" y="336.9084"></rect><text fill="#000000" font-family="sans-serif" font-size="14" lengthAdjust="spacing" textLength="117.7354" x="707.03" y="343.2551">total_players: int</text><rect fill="none" height="6" style="stroke:#C82930;stroke-width:1.0;" width="6" x="695.03" y="353.2053"></rect><text fill="#000000" font-family="sans-serif" font-size="14" lengthAdjust="spacing" textLength="203.2324" x="707.03" y="359.552">players_per_nationality: map</text><rect fill="none" height="6" style="stroke:#C82930;stroke-width:1.0;" width="6" x="695.03" y="369.5022"></rect><text fill="#000000" font-family="sans-serif" font-size="14" lengthAdjust="spacing" textLength="173.4961" x="707.03" y="375.8489">team_performance: map</text><line style="stroke:#181818;stroke-width:0.5;" x1="688.03" x2="915.2624" y1="383.1506" y2="383.1506"></line><ellipse cx="698.03" cy="396.7991" fill="#84BE84" rx="3" ry="3" style="stroke:#038048;stroke-width:1.0;"></ellipse><text fill="#000000" font-family="sans-serif" font-size="14" lengthAdjust="spacing" textLength="187.585" x="707.03" y="400.1457">calculateTotalPlayers(): int</text><ellipse cx="698.03" cy="413.0959" fill="#84BE84" rx="3" ry="3" style="stroke:#038048;stroke-width:1.0;"></ellipse><text fill="#000000" font-family="sans-serif" font-size="14" lengthAdjust="spacing" textLength="199.4248" x="707.03" y="416.4426">getPlayerDistribution(): map</text><ellipse cx="698.03" cy="429.3928" fill="#84BE84" rx="3" ry="3" style="stroke:#038048;stroke-width:1.0;"></ellipse><text fill="#000000" font-family="sans-serif" font-size="14" lengthAdjust="spacing" textLength="203.0273" x="707.03" y="432.7395">getTeamPerformance(): map</text></g><!--class Dashboard--><g id="elem_Dashboard"><rect codeline="44" fill="#F1F1F1" height="80.5938" id="Dashboard" rx="2.5" ry="2.5" style="stroke:#181818;stroke-width:0.5;" width="189.4268" x="848.93" y="72.18"></rect><ellipse cx="901.2933" cy="88.18" fill="#ADD1B2" rx="11" ry="11" style="stroke:#181818;stroke-width:1.0;"></ellipse><path d="M904.262,93.8206 Q903.6839,94.1175 903.0433,94.2581 Q902.4027,94.4144 901.6995,94.4144 Q899.1995,94.4144 897.8714,92.7737 Q896.5589,91.1175 896.5589,87.9925 Q896.5589,84.8675 897.8714,83.2112 Q899.1995,81.555 901.6995,81.555 Q902.4027,81.555 903.0433,81.7112 Q903.6995,81.8675 904.262,82.1644 L904.262,84.8831 Q903.637,84.305 903.0433,84.0394 Q902.4495,83.7581 901.8245,83.7581 Q900.4808,83.7581 899.7933,84.8362 Q899.1058,85.8987 899.1058,87.9925 Q899.1058,90.0862 899.7933,91.1644 Q900.4808,92.2269 901.8245,92.2269 Q902.4495,92.2269 903.0433,91.9612 Q903.637,91.68 904.262,91.1019 L904.262,93.8206 Z " fill="#000000"></path><text fill="#000000" font-family="sans-serif" font-size="14" lengthAdjust="spacing" textLength="76.2002" x="921.7933" y="93.0267">Dashboard</text><line style="stroke:#181818;stroke-width:0.5;" x1="849.93" x2="1037.3568" y1="104.18" y2="104.18"></line><line style="stroke:#181818;stroke-width:0.5;" x1="849.93" x2="1037.3568" y1="112.18" y2="112.18"></line><ellipse cx="859.93" cy="125.8284" fill="#84BE84" rx="3" ry="3" style="stroke:#038048;stroke-width:1.0;"></ellipse><text fill="#000000" font-family="sans-serif" font-size="14" lengthAdjust="spacing" textLength="163.4268" x="868.93" y="129.1751">displayStatistics(): void</text><ellipse cx="859.93" cy="142.1253" fill="#84BE84" rx="3" ry="3" style="stroke:#038048;stroke-width:1.0;"></ellipse><text fill="#000000" font-family="sans-serif" font-size="14" lengthAdjust="spacing" textLength="158.9082" x="868.93" y="145.472">generateCharts(): void</text></g><!--class i18n--><g id="elem_i18n"><rect codeline="49" fill="#F1F1F1" height="96.8906" id="i18n" rx="2.5" ry="2.5" style="stroke:#181818;stroke-width:0.5;" width="269.0859" x="951.1" y="318.71"></rect><ellipse cx="1066.1044" cy="334.71" fill="#ADD1B2" rx="11" ry="11" style="stroke:#181818;stroke-width:1.0;"></ellipse><path d="M1069.0731,340.3506 Q1068.495,340.6475 1067.8544,340.7881 Q1067.2138,340.9444 1066.5106,340.9444 Q1064.0106,340.9444 1062.6825,339.3038 Q1061.37,337.6475 1061.37,334.5225 Q1061.37,331.3975 1062.6825,329.7413 Q1064.0106,328.085 1066.5106,328.085 Q1067.2138,328.085 1067.8544,328.2413 Q1068.5106,328.3975 1069.0731,328.6944 L1069.0731,331.4131 Q1068.4481,330.835 1067.8544,330.5694 Q1067.2606,330.2881 1066.6356,330.2881 Q1065.2919,330.2881 1064.6044,331.3663 Q1063.9169,332.4288 1063.9169,334.5225 Q1063.9169,336.6163 1064.6044,337.6944 Q1065.2919,338.7569 1066.6356,338.7569 Q1067.2606,338.7569 1067.8544,338.4913 Q1068.4481,338.21 1069.0731,337.6319 L1069.0731,340.3506 Z " fill="#000000"></path><text fill="#000000" font-family="sans-serif" font-size="14" lengthAdjust="spacing" textLength="30.5771" x="1086.6044" y="339.5567">i18n</text><line style="stroke:#181818;stroke-width:0.5;" x1="952.1" x2="1219.1859" y1="350.71" y2="350.71"></line><rect fill="none" height="6" style="stroke:#C82930;stroke-width:1.0;" width="6" x="959.1" y="361.3584"></rect><text fill="#000000" font-family="sans-serif" font-size="14" lengthAdjust="spacing" textLength="172.5938" x="971.1" y="367.7051">current_language: string</text><line style="stroke:#181818;stroke-width:0.5;" x1="952.1" x2="1219.1859" y1="375.0069" y2="375.0069"></line><ellipse cx="962.1" cy="388.6553" fill="#84BE84" rx="3" ry="3" style="stroke:#038048;stroke-width:1.0;"></ellipse><text fill="#000000" font-family="sans-serif" font-size="14" lengthAdjust="spacing" textLength="228.3135" x="971.1" y="392.002">loadLanguage(lang: string): void</text><ellipse cx="962.1" cy="404.9522" fill="#84BE84" rx="3" ry="3" style="stroke:#038048;stroke-width:1.0;"></ellipse><text fill="#000000" font-family="sans-serif" font-size="14" lengthAdjust="spacing" textLength="243.0859" x="971.1" y="408.2989">switchLanguage(lang: string): void</text></g><!--link Player to Team--><g id="link_Player_Team"><path codeline="55" d="M231.03,218.44 C217.8,238.1 204.1,258.47 191.24,277.58 " fill="none" id="Player-Team" style="stroke:#181818;stroke-width:1.0;"></path><text fill="#000000" font-family="sans-serif" font-size="13" lengthAdjust="spacing" textLength="36.5625" x="189.095" y="238.1342">many</text><text fill="#000000" font-family="sans-serif" font-size="13" lengthAdjust="spacing" textLength="8.271" x="187.6808" y="266.9171">1</text></g><!--link Player to Nationality--><g id="link_Player_Nationality"><path codeline="56" d="M372.27,218.44 C387.41,240.95 403.18,264.39 417.58,285.79 " fill="none" id="Player-Nationality" style="stroke:#181818;stroke-width:1.0;"></path><text fill="#000000" font-family="sans-serif" font-size="13" lengthAdjust="spacing" textLength="36.5625" x="339.8245" y="238.1342">many</text><text fill="#000000" font-family="sans-serif" font-size="13" lengthAdjust="spacing" textLength="8.271" x="404.4202" y="274.9488">1</text></g><!--link Dashboard to Statistics--><g id="link_Dashboard_Statistics"><path codeline="57" d="M921.3,153.24 C900.18,190.83 867.98,248.13 842.3,293.82 " fill="none" id="Dashboard-Statistics" style="stroke:#181818;stroke-width:1.0;"></path></g><!--link Dashboard to i18n--><g id="link_Dashboard_i18n"><path codeline="58" d="M965.99,153.24 C991.14,197.99 1031.98,270.66 1058.83,318.44 " fill="none" id="Dashboard-i18n" style="stroke:#181818;stroke-width:1.0;"></path></g><!--SRC=[bLJBQiCm4BpxAqHEBY67t8eflJINGYY1zcusqiOHo9AHv1PJ-k_Lmuxaf4dRawETyQncTXqgm1Yo4p2W9fy58Il2MKMujE6tX1OhOgpciWa5Q32XdJBSSYLd38lGrdCDpm71xP3LbmGOYttBBZogyHft5NbNd0LEtp6m-2kDeS0psdFibBC4DpPoJEdgMtTyYEV7ugieQ8ZYpLt_Bq4SL2yPidf0q8dMWdG9wVgC7inwvTAdKuKcbpPl4AB14-6AEOydQ_wK6Nj9O_YBFutDVBB1GoPIPdEjSlLBO_zzAxgzyjOLxudDCMMGQMHHl5fNDfPJCoPXbGLHnyKnsNx7Gjs5YMRtRg5Bk-xGWz9kyXGdP4ae2DeBFrGldMtTjFqDZhkuuJxYVU_bFM5IS0G_mLrIdz2JZmsOurw1Pi66ouqRV-LahynJQb2YTZTwEeAs2JgfyVMz7FEWlTOeRIr0DdtuvBCr40hOTWHApvZGl9dvu9OURz9Su_5_P-7i3GkoMf75UX5s_sSacsQHl3imEPxNlQLl]--></g></svg>